<svg xmlns="http://www.w3.org/2000/svg" width="730" height="1480" viewBox="0 0 730 1480"><defs><style>.a{fill:#494952;}.b{fill:#cdcdd2;}</style></defs><title>device-iphone-x</title><path class="a" d="M618.6,2H111.4C51,2,2,51.12,2,111.7V1368.3C2,1428.88,51,1478,111.4,1478H618.6C679,1478,728,1428.88,728,1368.3V111.7C728,51.12,679,2,618.6,2ZM217,90H513a32,32,0,0,0,32-32V53.77A8.77,8.77,0,0,1,553.77,45H620a65,65,0,0,1,65,65V1370a65,65,0,0,1-65,65H110a65,65,0,0,1-65-65V110a65,65,0,0,1,65-65h66.23A8.77,8.77,0,0,1,185,53.77V58a32,32,0,0,0,32,32Z"/><path class="b" d="M620,10A100.11,100.11,0,0,1,720,110V1370a100.11,100.11,0,0,1-100,100H110A100.11,100.11,0,0,1,10,1370V110A100.11,100.11,0,0,1,110,10H620m0-10H110A110,110,0,0,0,0,110V1370a110,110,0,0,0,110,110H620a110,110,0,0,0,110-110V110A110,110,0,0,0,620,0Z"/></svg>