<svg xmlns="http://www.w3.org/2000/svg" width="730" height="1503" viewBox="0 0 730 1503"><defs><style>.a{fill:#494952;}.b{fill:#cdcdd2;}</style></defs><title>device-pixel-2-xl</title><path class="a" d="M650,2H80A78,78,0,0,0,2,80V1423a78,78,0,0,0,78,78H650a78,78,0,0,0,78-78V80A78,78,0,0,0,650,2Zm39,1365a38,38,0,0,1-38,38H79a38,38,0,0,1-38-38V147a38,38,0,0,1,38-38H651a38,38,0,0,1,38,38Z"/><path class="b" d="M652,10a68.07,68.07,0,0,1,68,68V1425a68.07,68.07,0,0,1-68,68H78a68.07,68.07,0,0,1-68-68V78A68.07,68.07,0,0,1,78,10H652m0-10H78A78,78,0,0,0,0,78V1425a78,78,0,0,0,78,78H652a78,78,0,0,0,78-78V78A78,78,0,0,0,652,0Z"/></svg>