<svg xmlns="http://www.w3.org/2000/svg" width="179.59" height="125" viewBox="0 0 179.59 125"><defs><style>.a,.b,.d{fill:none;stroke-width:2.5px;}.a,.b{stroke:#fff;}.a,.d{stroke-linecap:round;}.a{stroke-linejoin:round;}.b,.d{stroke-miterlimit:10;}.c{fill:#494952;}.d{stroke:#494952;}.e{fill:#fff;}</style></defs><title>rocket</title><path class="a" d="M62.83,100.45a6.24,6.24,0,0,1,2-1.2A7,7,0,0,1,66,98.91a3.07,3.07,0,0,1-.36-.67,3.21,3.21,0,1,1,5.16,1.18,7.53,7.53,0,0,1,3.88,4.09,7.83,7.83,0,0,1,.4,1.39,4.51,4.51,0,0,1,1.82-1.32,4.56,4.56,0,0,1,5.91,2.57c.92,2.34,3.4,4.72,1.06,5.64l5.87-.43"/><path class="a" d="M38.39,86.55a12.18,12.18,0,0,1,9.86,2.58c.44-.81,1.75-.66,2.73-.73a7.57,7.57,0,0,1,8.09,7,6.69,6.69,0,0,1-.15,2.15"/><path class="b" d="M134.72,89.19a8.16,8.16,0,1,0-15.74,3c-.19,0-.38,0-.57,0a12.43,12.43,0,0,0-12,9.38,7.89,7.89,0,1,0-4.56,14.32H83.31"/><circle class="c" cx="73.32" cy="58.12" r="1.28"/><circle class="c" cx="106.27" cy="58.12" r="1.28"/><path class="d" d="M91.58,60.62a5,5,0,0,0-3.52,0c-1.89-3.18-3.24-11.33-3.24-20.89,0-12.7,4.93-28.14,4.93-28.14h.14s4.92,15.93,4.92,28.14C94.81,49.29,93.47,57.44,91.58,60.62Z"/><polyline class="c" points="93.05 60.62 91.32 66.33 88.3 66.33 86.58 60.62"/><path class="c" d="M91.45,32.06a.66.66,0,0,0,.18-.44c0-.56-.49-6.22-1.82-6.22S88,31.06,88,31.62a.71.71,0,0,0,.18.44A5.4,5.4,0,0,1,91.45,32.06Z"/><path class="d" d="M85.34,32.06c-2,12.45-12.14,19.69-12.14,19.69V57c5.59-.23,10.69.63,14.86,3.61"/><path class="d" d="M94.29,32.06c1.95,12.45,12.1,19.69,12.1,19.69V57c-5.58-.23-10.69.63-14.86,3.61"/><line class="d" x1="89.74" y1="55.96" x2="89.74" y2="50.49"/><path class="a" d="M147.58,96.46a2.74,2.74,0,0,0-4.18-3.55,6.51,6.51,0,0,0-2-2.71,6.3,6.3,0,1,0-8,9.75"/><path class="a" d="M24.16,92.57a6.09,6.09,0,0,0-11.24,4.17,10.43,10.43,0,0,0-5.29,15.05"/><path class="a" d="M155.79,103.17a9.16,9.16,0,0,0-17.55,5.24"/><path class="e" d="M108.22,116.94A18.05,18.05,0,0,1,93.8,99.26V78.73c0-5.47-1-10.27-2.33-11.33H88.1c-1.38,1.06-2.33,5.38-2.33,11.33V99.26A18,18,0,0,1,73.5,116.34c.1.1.2.2.31.29.59.49,2,1.74,6,1.74h28.24l.26-.72S109.39,117.18,108.22,116.94Z"/><path class="a" d="M21.31,96.67a9.09,9.09,0,1,1,16.74,7.1,9,9,0,0,1-3.21,3.94"/><path class="a" d="M32.08,110.27a13.7,13.7,0,0,1,9.17-5,5.58,5.58,0,0,1,7.63-2,7.8,7.8,0,1,1,14.35,5.66,2.83,2.83,0,0,1,2,2.7h0a7,7,0,0,1,1.22-.11,6.9,6.9,0,0,1,6,3.46,6.61,6.61,0,0,0,5.7,3.43l25.68-.1a12.31,12.31,0,0,0,11.22-7.11l0-.1a6.21,6.21,0,0,1,11.79,3.63,21,21,0,0,1,9.58-2.83,4,4,0,0,1,6.06-3.46"/><path class="a" d="M38.27,86.76a5.69,5.69,0,1,0-10.83,3.51"/><path class="a" d="M170.46,107.72A11.6,11.6,0,1,0,150.2,97.16"/></svg>